<svg xmlns="http://www.w3.org/2000/svg" width="111" height="36" viewBox="0 0 111 36">
    <rect x="0.5" y="0.5" width="110" height="35" rx="6" fill="#000000" stroke="#a6a6a6" stroke-width="1"/>
    <!-- Telegram plane icon -->
    <svg x="10" y="8" width="20" height="20" viewBox="0 0 100 100" fill="none">
        <path d="M88.723,12.142C76.419,17.238,23.661,39.091,9.084,45.047c-9.776,3.815-4.053,7.392-4.053,7.392    s8.345,2.861,15.499,5.007c7.153,2.146,10.968-0.238,10.968-0.238l33.62-22.652c11.922-8.107,9.061-1.431,6.199,1.431    c-6.199,6.2-16.452,15.975-25.036,23.844c-3.815,3.338-1.908,6.199-0.238,7.63c6.199,5.246,23.129,15.976,24.082,16.691    c5.037,3.566,14.945,8.699,16.452-2.146c0,0,5.961-37.435,5.961-37.435c1.908-12.637,3.815-24.321,4.053-27.659    C97.307,8.804,88.723,12.142,88.723,12.142z"
              fill="#229ED9"/>
    </svg>
    <text x="38" y="8" dominant-baseline="hanging" text-anchor="start"
          font-family="-apple-system, BlinkMacSystemFont, 'Segoe UI', sans-serif" font-size="9"
          fill="#8892a4" letter-spacing="0.5">OPEN IN
    </text>
    <text x="38" y="28" text-anchor="start"
          font-family="-apple-system, BlinkMacSystemFont, 'Segoe UI', sans-serif" font-size="13"
          font-weight="600" fill="#ffffff">Telegram
    </text>
</svg>